<svg width="37" height="31" viewBox="0 0 37 31" fill="none" xmlns="http://www.w3.org/2000/svg">
<path d="M10.3333 0.454529C4.70446 0.454529 0.125 4.19286 0.125 8.78786V22.1212C0.125 26.7162 4.70446 30.4545 10.3333 30.4545H26.6667C32.2955 30.4545 36.875 26.7162 36.875 22.1212V8.78786C36.875 4.19286 32.2955 0.454529 26.6667 0.454529H10.3333ZM10.3333 3.78786H26.6667C30.0436 3.78786 32.7917 6.0312 32.7917 8.78786V22.1212C32.7917 24.8779 30.0436 27.1212 26.6667 27.1212H10.3333C6.95642 27.1212 4.20833 24.8779 4.20833 22.1212V8.78786C4.20833 6.0312 6.95642 3.78786 10.3333 3.78786ZM28.7083 5.45453C28.1669 5.45453 27.6475 5.63012 27.2647 5.94268C26.8818 6.25525 26.6667 6.67917 26.6667 7.1212C26.6667 7.56322 26.8818 7.98715 27.2647 8.29971C27.6475 8.61227 28.1669 8.78786 28.7083 8.78786C29.2498 8.78786 29.7691 8.61227 30.152 8.29971C30.5349 7.98715 30.75 7.56322 30.75 7.1212C30.75 6.67917 30.5349 6.25525 30.152 5.94268C29.7691 5.63012 29.2498 5.45453 28.7083 5.45453ZM18.5 7.1212C12.8711 7.1212 8.29167 10.8595 8.29167 15.4545C8.29167 20.0495 12.8711 23.7879 18.5 23.7879C24.1289 23.7879 28.7083 20.0495 28.7083 15.4545C28.7083 10.8595 24.1289 7.1212 18.5 7.1212ZM18.5 10.4545C21.8769 10.4545 24.625 12.6979 24.625 15.4545C24.625 18.2112 21.8769 20.4545 18.5 20.4545C15.1231 20.4545 12.375 18.2112 12.375 15.4545C12.375 12.6979 15.1231 10.4545 18.5 10.4545Z" fill="black"/>
</svg>
