<svg width="39" height="35" viewBox="0 0 39 35" fill="none" xmlns="http://www.w3.org/2000/svg">
<path d="M19.5 0.416687C9.14438 0.416687 0.75 8.0649 0.75 17.5C0.75 26.9351 9.14438 34.5834 19.5 34.5834C29.8556 34.5834 38.25 26.9351 38.25 17.5C38.25 8.0649 29.8556 0.416687 19.5 0.416687ZM19.5 3.83335C27.7838 3.83335 34.5 9.9526 34.5 17.5C34.5 25.0474 27.7838 31.1667 19.5 31.1667C18.1207 31.1667 16.7916 30.9838 15.523 30.6662C15.922 29.9338 16.2799 29.1619 16.4751 28.4774C16.6907 27.7257 17.5737 24.6603 17.5737 24.6603C18.1475 25.658 19.8244 26.5055 21.6094 26.5055C26.9213 26.5055 30.75 22.054 30.75 16.5224C30.75 11.218 26.0007 7.25002 19.8882 7.25002C12.2851 7.25002 8.25 11.8993 8.25 16.9628C8.25 19.3169 9.62484 22.2478 11.8242 23.1822C12.158 23.324 12.3369 23.2625 12.4138 22.9687C12.4738 22.7449 12.7714 21.6543 12.9045 21.1469C12.9477 20.9863 12.9281 20.8453 12.7837 20.6865C12.0562 19.8818 11.4727 18.4049 11.4727 17.0262C11.4727 13.4849 14.4149 10.0594 19.4268 10.0594C23.7543 10.0594 26.7839 12.7471 26.7839 16.5891C26.7839 20.93 24.3781 23.9363 21.2468 23.9363C19.5181 23.9363 18.2195 22.6358 18.6357 21.0368C19.1326 19.1286 20.0969 17.0685 20.0969 15.6916C20.0969 14.4599 19.3741 13.4327 17.8704 13.4327C16.1022 13.4327 14.6807 15.0971 14.6807 17.3299C14.6807 18.7512 15.208 19.7122 15.208 19.7122C15.208 19.7122 13.4632 26.4378 13.1426 27.69C12.9837 28.3079 12.9306 29.0401 12.9265 29.772C7.94207 27.5503 4.5 22.896 4.5 17.5C4.5 9.9526 11.2163 3.83335 19.5 3.83335Z" fill="black"/>
</svg>
